<svg xmlns="http://www.w3.org/2000/svg" width="654.796" height="68.495" viewBox="0 0 654.796 68.495">
  <g id="Group_89" data-name="Group 89" transform="translate(-16.202 -8.376)">
    <g id="Group_1" data-name="Group 1" transform="translate(16.202 8.376)">
      <g id="Layer_2" data-name="Layer 2">
        <g id="Layer_1" data-name="Layer 1">
          <path id="Path_1" data-name="Path 1" d="M16.34,31.576c0,5.674-1.179,11.158.3,15.8,1.891,5.913.675,11.612,1.261,17.361.2,2.024-.775,3.549-2.95,3.738s-3.505-.977-3.549-3.1c-.1-4.829-1.059-9.979.271-14.411,1.853-6.184.687-12.236,1.261-18.282.183-1.891-.58-2.786-2.339-3.417C7.243,28.052,3.99,26.6,0,24.97c2.692-1.147,4.8-2.1,6.934-2.957Q33.827,11.252,60.752.567A6.748,6.748,0,0,1,65.209.258c19.927,7.836,39.8,15.81,59.674,23.766.46.183.889.454,1.923.99-6.083,2.459-11.675,4.722-17.273,6.934-3.4,1.368-6.884,2.585-10.194,4.154a4.091,4.091,0,0,0-1.986,2.887c-.233,3.877.038,7.779-.177,11.656a4.9,4.9,0,0,1-1.689,3.3c-17.916,13.327-45.855,13.4-63.853.139a5.321,5.321,0,0,1-1.809-3.549c-.24-3.782,0-7.565-.17-11.347a3.823,3.823,0,0,0-1.589-2.881C24.459,34.671,20.709,33.316,16.34,31.576Z" transform="translate(0 0.001)" fill="#484848"/>
        </g>
      </g>
      <g id="Layer_2-2" data-name="Layer 2" transform="translate(55.749)">
        <g id="Layer_1-2" data-name="Layer 1" transform="translate(0)">
          <path id="Path_1-2" data-name="Path 1" d="M93.437.567A6.748,6.748,0,0,1,97.894.258c19.927,7.836,39.8,15.81,59.674,23.766.46.183.889.454,1.923.99-6.083,2.459-11.675,4.722-17.273,6.934-3.4,1.368-6.884,2.585-10.194,4.154a4.091,4.091,0,0,0-1.986,2.887c-.233,3.877.038,7.779-.177,11.656a4.9,4.9,0,0,1-1.689,3.3C110.256,67.276,75.487,7.69,93.437.567Z" transform="translate(-88.434 0.001)" fill="#576dff"/>
        </g>
      </g>
    </g>
    <text id="UnigateConsultants" transform="translate(159.998 61.376)" fill="#576dff" font-size="56" font-family="SFProDisplay-Bold, SF Pro Display" font-weight="700"><tspan x="0" y="0">Unigate</tspan><tspan y="0" fill="#484848">Consultants</tspan></text>
  </g>
</svg>
